<?xml version="1.0" encoding="UTF-8"?><svg xmlns="http://www.w3.org/2000/svg" xmlns:xlink="http://www.w3.org/1999/xlink" contentScriptType="text/ecmascript" zoomAndPan="magnify" contentStyleType="text/css" style="stroke-opacity: 1.0;" version="1.0" width="48" fill="none" preserveAspectRatio="xMidYMid meet" viewBox="0 0 48 48" height="48" opacity="1.0">
<path fill="#4ADBCB" fill-opacity="1.0" stroke-width="2.0" d="M7 37C7 29.2967 7 11 7 11C7 7.68629 9.68629 5 13 5H35V31C35 31 18.2326 31 13 31C9.7 31 7 33.6842 7 37Z" stroke-linejoin="round" stroke="#4ADBCB"/>
<path d="M35 31C35 31 14.1537 31 13 31C9.68629 31 7 33.6863 7 37C7 40.3137 9.68629 43 13 43C15.2091 43 25.8758 43 41 43V7" stroke-width="2.0" stroke-linejoin="round" stroke-linecap="round" stroke="#4ADBCB"/>
<path d="M14 37H34" stroke-width="2.0" stroke-linejoin="round" stroke-linecap="round" stroke="#4ADBCB"/>
</svg>