<?xml version="1.0" encoding="UTF-8"?><svg xmlns="http://www.w3.org/2000/svg" xmlns:xlink="http://www.w3.org/1999/xlink" contentScriptType="text/ecmascript" zoomAndPan="magnify" contentStyleType="text/css" style="stroke-opacity: 1.0;" version="1.0" width="48" fill="none" preserveAspectRatio="xMidYMid meet" viewBox="0 0 48 48" height="48" opacity="1.0">
<path fill="#34C759" fill-opacity="1.0" stroke-width="2.0" d="M38 8H10C8.89543 8 8 8.89543 8 10V38C8 39.1046 8.89543 40 10 40H38C39.1046 40 40 39.1046 40 38V10C40 8.89543 39.1046 8 38 8Z" stroke-linejoin="round" stroke="#34C759"/>
<path fill="white" fill-opacity="1.0" stroke-width="2.0" d="M30 18H18V30H30V18Z" stroke-linejoin="round" stroke="white"/>
<path fill="#34C759" clip-rule="evenodd" fill-opacity="1.0" d="M14.9092 2V8V2Z" fill-rule="evenodd"/>
<path d="M14.9092 2V8" stroke-width="2.0" stroke-linejoin="round" stroke-linecap="round" stroke="#34C759"/>
<path fill="#34C759" clip-rule="evenodd" fill-opacity="1.0" d="M14.9092 40V46V40Z" fill-rule="evenodd"/>
<path d="M14.9092 40V46" stroke-width="2.0" stroke-linejoin="round" stroke-linecap="round" stroke="#34C759"/>
<path fill="#34C759" clip-rule="evenodd" fill-opacity="1.0" d="M24 2V8V2Z" fill-rule="evenodd"/>
<path d="M24 2V8" stroke-width="2.0" stroke-linejoin="round" stroke-linecap="round" stroke="#34C759"/>
<path fill="#34C759" clip-rule="evenodd" fill-opacity="1.0" d="M24 40V46V40Z" fill-rule="evenodd"/>
<path d="M24 40V46" stroke-width="2.0" stroke-linejoin="round" stroke-linecap="round" stroke="#34C759"/>
<path fill="#34C759" clip-rule="evenodd" fill-opacity="1.0" d="M33.0908 2V8V2Z" fill-rule="evenodd"/>
<path d="M33.0908 2V8" stroke-width="2.0" stroke-linejoin="round" stroke-linecap="round" stroke="#34C759"/>
<path fill="#34C759" clip-rule="evenodd" fill-opacity="1.0" d="M33.0908 40V46V40Z" fill-rule="evenodd"/>
<path d="M33.0908 40V46" stroke-width="2.0" stroke-linejoin="round" stroke-linecap="round" stroke="#34C759"/>
<path fill="#34C759" clip-rule="evenodd" fill-opacity="1.0" d="M2 14.9092H8H2Z" fill-rule="evenodd"/>
<path d="M2 14.9092H8" stroke-width="2.0" stroke-linejoin="round" stroke-linecap="round" stroke="#34C759"/>
<path fill="#34C759" clip-rule="evenodd" fill-opacity="1.0" d="M40 14.9092H46H40Z" fill-rule="evenodd"/>
<path d="M40 14.9092H46" stroke-width="2.0" stroke-linejoin="round" stroke-linecap="round" stroke="#34C759"/>
<path fill="#34C759" clip-rule="evenodd" fill-opacity="1.0" d="M2 24H8H2Z" fill-rule="evenodd"/>
<path d="M2 24H8" stroke-width="2.0" stroke-linejoin="round" stroke-linecap="round" stroke="#34C759"/>
<path fill="#34C759" clip-rule="evenodd" fill-opacity="1.0" d="M40 24H46H40Z" fill-rule="evenodd"/>
<path d="M40 24H46" stroke-width="2.0" stroke-linejoin="round" stroke-linecap="round" stroke="#34C759"/>
<path fill="#34C759" clip-rule="evenodd" fill-opacity="1.0" d="M2 33.0908H8H2Z" fill-rule="evenodd"/>
<path d="M2 33.0908H8" stroke-width="2.0" stroke-linejoin="round" stroke-linecap="round" stroke="#34C759"/>
<path fill="#34C759" clip-rule="evenodd" fill-opacity="1.0" d="M40 33.0908H46H40Z" fill-rule="evenodd"/>
<path d="M40 33.0908H46" stroke-width="2.0" stroke-linejoin="round" stroke-linecap="round" stroke="#34C759"/>
</svg>